<svg width="130" height="36" viewBox="0 0 130 36" fill="none" xmlns="http://www.w3.org/2000/svg">
<path d="M39.558 17.7538C40.174 17.7538 40.678 17.8471 41.07 18.0338C41.4713 18.2111 41.826 18.4211 42.134 18.6638C42.3207 18.8038 42.4607 18.8225 42.554 18.7198C42.6567 18.6078 42.7267 18.3511 42.764 17.9498H43.086C43.0673 18.3138 43.0533 18.7571 43.044 19.2798C43.0347 19.7931 43.03 20.4791 43.03 21.3378H42.708C42.6613 20.9085 42.6007 20.5445 42.526 20.2458C42.4513 19.9378 42.3487 19.6671 42.218 19.4338C42.0873 19.2005 41.9007 18.9905 41.658 18.8038C41.4247 18.5705 41.154 18.3978 40.846 18.2858C40.538 18.1738 40.216 18.1178 39.88 18.1178C39.376 18.1178 38.9467 18.2531 38.592 18.5238C38.2373 18.7851 37.948 19.1445 37.724 19.6018C37.5093 20.0591 37.3507 20.5771 37.248 21.1558C37.1453 21.7251 37.094 22.3178 37.094 22.9338C37.094 23.5591 37.1453 24.1611 37.248 24.7398C37.36 25.3091 37.528 25.8178 37.752 26.2658C37.9853 26.7138 38.284 27.0685 38.648 27.3298C39.012 27.5911 39.4413 27.7218 39.936 27.7218C40.244 27.7218 40.552 27.6658 40.86 27.5538C41.1773 27.4325 41.448 27.2598 41.672 27.0358C42.036 26.7558 42.2833 26.4105 42.414 25.9998C42.5447 25.5798 42.6427 25.0245 42.708 24.3338H43.03C43.03 25.2205 43.0347 25.9391 43.044 26.4898C43.0533 27.0311 43.0673 27.4885 43.086 27.8618H42.764C42.7267 27.4605 42.6613 27.2085 42.568 27.1058C42.484 27.0031 42.3393 27.0171 42.134 27.1478C41.7887 27.3905 41.42 27.6051 41.028 27.7918C40.6453 27.9691 40.1507 28.0578 39.544 28.0578C38.5547 28.0578 37.6867 27.8571 36.94 27.4558C36.2027 27.0545 35.6287 26.4758 35.218 25.7198C34.8073 24.9638 34.602 24.0538 34.602 22.9898C34.602 21.9445 34.812 21.0298 35.232 20.2458C35.6613 19.4618 36.2447 18.8505 36.982 18.4118C37.7287 17.9731 38.5873 17.7538 39.558 17.7538ZM51.3891 17.7538C52.3784 17.7538 53.2418 17.9545 53.9791 18.3558C54.7258 18.7571 55.3044 19.3358 55.7151 20.0918C56.1258 20.8385 56.3311 21.7485 56.3311 22.8218C56.3311 23.8671 56.1211 24.7818 55.7011 25.5658C55.2811 26.3498 54.6931 26.9611 53.9371 27.3998C53.1904 27.8385 52.3364 28.0578 51.3751 28.0578C50.3858 28.0578 49.5178 27.8571 48.7711 27.4558C48.0338 27.0545 47.4598 26.4758 47.0491 25.7198C46.6384 24.9638 46.4331 24.0538 46.4331 22.9898C46.4331 21.9445 46.6431 21.0298 47.0631 20.2458C47.4924 19.4618 48.0758 18.8505 48.8131 18.4118C49.5598 17.9731 50.4184 17.7538 51.3891 17.7538ZM51.3331 18.0058C50.8104 18.0058 50.3531 18.2158 49.9611 18.6358C49.5784 19.0558 49.2798 19.6345 49.0651 20.3718C48.8598 21.1091 48.7571 21.9631 48.7571 22.9338C48.7571 23.9231 48.8738 24.7865 49.1071 25.5238C49.3498 26.2518 49.6718 26.8165 50.0731 27.2178C50.4838 27.6098 50.9364 27.8058 51.4311 27.8058C51.9538 27.8058 52.4064 27.5958 52.7891 27.1758C53.1811 26.7558 53.4798 26.1771 53.6851 25.4398C53.8998 24.6931 54.0071 23.8391 54.0071 22.8778C54.0071 21.8791 53.8858 21.0158 53.6431 20.2878C53.4098 19.5598 53.0878 18.9998 52.6771 18.6078C52.2758 18.2065 51.8278 18.0058 51.3331 18.0058ZM68.4853 17.9498V18.2298C68.1866 18.2671 67.9626 18.3465 67.8133 18.4678C67.6639 18.5798 67.5613 18.7618 67.5053 19.0138C67.4586 19.2658 67.4353 19.6205 67.4353 20.0778V27.8898C67.3233 27.8805 67.2066 27.8758 67.0853 27.8758C66.9733 27.8758 66.8519 27.8805 66.7213 27.8898L60.6453 20.1898V25.5658C60.6453 26.0791 60.6733 26.4758 60.7293 26.7558C60.7853 27.0265 60.9066 27.2225 61.0933 27.3438C61.2893 27.4558 61.5926 27.5351 62.0033 27.5818V27.8618C61.8259 27.8431 61.5926 27.8338 61.3033 27.8338C61.0139 27.8245 60.7433 27.8198 60.4913 27.8198C60.2766 27.8198 60.0573 27.8245 59.8333 27.8338C59.6093 27.8338 59.4226 27.8431 59.2733 27.8618V27.5818C59.5719 27.5351 59.7959 27.4558 59.9453 27.3438C60.0946 27.2318 60.1926 27.0498 60.2393 26.7978C60.2953 26.5365 60.3233 26.1818 60.3233 25.7338V19.4338C60.3233 19.0885 60.2953 18.8365 60.2393 18.6778C60.1926 18.5098 60.0899 18.3978 59.9313 18.3418C59.7819 18.2765 59.5626 18.2391 59.2733 18.2298V17.9498C59.4226 17.9591 59.6093 17.9685 59.8333 17.9778C60.0573 17.9871 60.2766 17.9918 60.4913 17.9918C60.7153 17.9918 60.9299 17.9871 61.1353 17.9778C61.3406 17.9685 61.5273 17.9591 61.6953 17.9498L67.1133 24.6278V20.2458C67.1133 19.7325 67.0853 19.3405 67.0293 19.0698C66.9733 18.7898 66.8473 18.5891 66.6513 18.4678C66.4646 18.3465 66.1659 18.2671 65.7553 18.2298V17.9498C65.9326 17.9591 66.1659 17.9685 66.4553 17.9778C66.7446 17.9871 67.0153 17.9918 67.2673 17.9918C67.4913 17.9918 67.7106 17.9871 67.9253 17.9778C68.1493 17.9685 68.3359 17.9591 68.4853 17.9498ZM81.4471 27.6938L81.6991 27.7638C81.6244 28.2771 81.5078 28.7158 81.3491 29.0798C81.1904 29.4531 80.9851 29.7425 80.7331 29.9478C80.5371 30.1065 80.2804 30.2371 79.9631 30.3398C79.6551 30.4425 79.3098 30.4938 78.9271 30.4938C78.4138 30.4938 77.9098 30.4145 77.4151 30.2558C76.9298 30.0971 76.4351 29.9011 75.9311 29.6678C75.4271 29.4438 74.8951 29.2245 74.3351 29.0098C74.2698 28.9911 74.2044 28.9678 74.1391 28.9398C74.0831 28.9211 74.0364 28.9118 73.9991 28.9118C73.8218 28.9958 73.6258 29.0658 73.4111 29.1218C73.2058 29.1778 73.0098 29.2058 72.8231 29.2058C72.6364 29.2058 72.4778 29.1778 72.3471 29.1218C72.2258 29.0658 72.1651 28.9725 72.1651 28.8418C72.1651 28.5898 72.4218 28.4638 72.9351 28.4638C73.2618 28.4638 73.6164 28.5291 73.9991 28.6598C74.3444 28.5665 74.6384 28.4591 74.8811 28.3378C75.1331 28.2258 75.3898 28.1185 75.6511 28.0158C75.9218 27.9131 76.2484 27.8478 76.6311 27.8198L76.6451 28.0438C76.3464 28.0718 76.0898 28.1231 75.8751 28.1978C75.6698 28.2818 75.4598 28.3705 75.2451 28.4638C75.0304 28.5571 74.7784 28.6458 74.4891 28.7298C75.1518 28.7765 75.7678 28.8231 76.3371 28.8698C76.9064 28.9258 77.4338 28.9585 77.9191 28.9678C78.4044 28.9865 78.8431 28.9678 79.2351 28.9118C79.8138 28.8465 80.2711 28.7205 80.6071 28.5338C80.9431 28.3471 81.2231 28.0671 81.4471 27.6938ZM76.3091 17.7538C77.2984 17.7538 78.1618 17.9545 78.8991 18.3558C79.6458 18.7571 80.2244 19.3358 80.6351 20.0918C81.0458 20.8385 81.2511 21.7485 81.2511 22.8218C81.2511 23.8671 81.0411 24.7818 80.6211 25.5658C80.2011 26.3498 79.6131 26.9611 78.8571 27.3998C78.1104 27.8385 77.2564 28.0578 76.2951 28.0578C75.3058 28.0578 74.4378 27.8571 73.6911 27.4558C72.9538 27.0545 72.3798 26.4758 71.9691 25.7198C71.5584 24.9638 71.3531 24.0538 71.3531 22.9898C71.3531 21.9445 71.5631 21.0298 71.9831 20.2458C72.4124 19.4618 72.9958 18.8505 73.7331 18.4118C74.4798 17.9731 75.3384 17.7538 76.3091 17.7538ZM76.2531 18.0058C75.7304 18.0058 75.2731 18.2158 74.8811 18.6358C74.4984 19.0558 74.1998 19.6345 73.9851 20.3718C73.7798 21.1091 73.6771 21.9631 73.6771 22.9338C73.6771 23.9231 73.7938 24.7865 74.0271 25.5238C74.2698 26.2518 74.5918 26.8165 74.9931 27.2178C75.4038 27.6098 75.8564 27.8058 76.3511 27.8058C76.8738 27.8058 77.3264 27.5958 77.7091 27.1758C78.1011 26.7558 78.3998 26.1771 78.6051 25.4398C78.8198 24.6931 78.9271 23.8391 78.9271 22.8778C78.9271 21.8791 78.8058 21.0158 78.5631 20.2878C78.3298 19.5598 78.0078 18.9998 77.5971 18.6078C77.1958 18.2065 76.7478 18.0058 76.2531 18.0058ZM93.1383 17.9498V18.2298C92.8396 18.2671 92.611 18.3465 92.4523 18.4678C92.303 18.5798 92.205 18.7618 92.1583 19.0138C92.1116 19.2658 92.0883 19.6205 92.0883 20.0778V23.7878C92.0883 24.3945 92.0463 24.9498 91.9623 25.4538C91.8783 25.9578 91.729 26.3918 91.5143 26.7558C91.2716 27.1571 90.917 27.4745 90.4503 27.7078C89.9836 27.9411 89.391 28.0578 88.6723 28.0578C88.243 28.0578 87.8043 28.0065 87.3563 27.9038C86.9083 27.8105 86.507 27.6285 86.1523 27.3578C85.8536 27.1058 85.625 26.8211 85.4663 26.5038C85.3076 26.1865 85.2003 25.8131 85.1443 25.3838C85.0883 24.9451 85.0603 24.4271 85.0603 23.8298V19.4338C85.0603 19.0885 85.0323 18.8365 84.9763 18.6778C84.9296 18.5098 84.8316 18.3978 84.6823 18.3418C84.533 18.2765 84.309 18.2391 84.0103 18.2298V17.9498C84.2436 17.9591 84.5563 17.9685 84.9483 17.9778C85.3496 17.9871 85.765 17.9918 86.1943 17.9918C86.6236 17.9918 87.0343 17.9871 87.4263 17.9778C87.8276 17.9685 88.159 17.9591 88.4203 17.9498V18.2298C88.103 18.2391 87.8603 18.2765 87.6923 18.3418C87.5336 18.3978 87.4263 18.5098 87.3703 18.6778C87.3143 18.8365 87.2863 19.0885 87.2863 19.4338V24.7118C87.2863 25.1785 87.3143 25.5938 87.3703 25.9578C87.4356 26.3125 87.5383 26.6111 87.6783 26.8538C87.8276 27.0871 88.0283 27.2645 88.2803 27.3858C88.5323 27.5071 88.845 27.5678 89.2183 27.5678C89.8716 27.5678 90.3803 27.4138 90.7443 27.1058C91.1176 26.7978 91.379 26.3731 91.5283 25.8318C91.687 25.2811 91.7663 24.6511 91.7663 23.9418V20.2458C91.7663 19.7325 91.7336 19.3405 91.6683 19.0698C91.603 18.7898 91.4723 18.5891 91.2763 18.4678C91.0896 18.3465 90.8003 18.2671 90.4083 18.2298V17.9498C90.5856 17.9591 90.819 17.9685 91.1083 17.9778C91.3976 17.9871 91.6683 17.9918 91.9203 17.9918C92.1443 17.9918 92.3636 17.9871 92.5783 17.9778C92.8023 17.9685 92.989 17.9591 93.1383 17.9498ZM103.323 17.9498C103.285 18.3605 103.257 18.7571 103.239 19.1398C103.229 19.5225 103.225 19.8165 103.225 20.0218C103.225 20.2085 103.229 20.3858 103.239 20.5538C103.248 20.7218 103.257 20.8618 103.267 20.9738H102.945C102.851 20.2925 102.707 19.7558 102.511 19.3638C102.315 18.9625 102.058 18.6825 101.741 18.5238C101.433 18.3558 101.069 18.2718 100.649 18.2718H100.075C99.804 18.2718 99.5986 18.2951 99.4586 18.3418C99.3186 18.3885 99.2253 18.4818 99.1786 18.6218C99.132 18.7618 99.1086 18.9765 99.1086 19.2658V26.5458C99.1086 26.8351 99.132 27.0498 99.1786 27.1898C99.2253 27.3298 99.3186 27.4231 99.4586 27.4698C99.5986 27.5165 99.804 27.5398 100.075 27.5398H100.761C101.181 27.5398 101.549 27.4511 101.867 27.2738C102.193 27.0871 102.469 26.7745 102.693 26.3358C102.926 25.8971 103.103 25.3045 103.225 24.5578H103.547C103.519 24.8565 103.505 25.2485 103.505 25.7338C103.505 25.9485 103.509 26.2518 103.519 26.6438C103.528 27.0358 103.556 27.4418 103.603 27.8618C103.127 27.8431 102.59 27.8338 101.993 27.8338C101.395 27.8245 100.863 27.8198 100.397 27.8198C100.163 27.8198 99.8646 27.8198 99.5006 27.8198C99.1366 27.8198 98.7446 27.8245 98.3246 27.8338C97.9046 27.8338 97.48 27.8385 97.0506 27.8478C96.6213 27.8478 96.2153 27.8525 95.8326 27.8618V27.5818C96.1313 27.5631 96.3553 27.5258 96.5046 27.4698C96.654 27.4138 96.752 27.3018 96.7986 27.1338C96.8546 26.9658 96.8826 26.7138 96.8826 26.3778V19.4338C96.8826 19.0885 96.8546 18.8365 96.7986 18.6778C96.752 18.5098 96.6493 18.3978 96.4906 18.3418C96.3413 18.2765 96.122 18.2391 95.8326 18.2298V17.9498C96.2153 17.9591 96.6213 17.9685 97.0506 17.9778C97.48 17.9778 97.9046 17.9825 98.3246 17.9918C98.7446 17.9918 99.1366 17.9918 99.5006 17.9918C99.8646 17.9918 100.163 17.9918 100.397 17.9918C100.826 17.9918 101.311 17.9918 101.853 17.9918C102.403 17.9825 102.893 17.9685 103.323 17.9498ZM101.139 22.7378C101.139 22.7378 101.139 22.7845 101.139 22.8778C101.139 22.9711 101.139 23.0178 101.139 23.0178H98.6886C98.6886 23.0178 98.6886 22.9711 98.6886 22.8778C98.6886 22.7845 98.6886 22.7378 98.6886 22.7378H101.139ZM101.545 20.8898C101.507 21.4218 101.489 21.8278 101.489 22.1078C101.498 22.3878 101.503 22.6445 101.503 22.8778C101.503 23.1111 101.507 23.3678 101.517 23.6478C101.526 23.9278 101.549 24.3338 101.587 24.8658H101.265C101.218 24.5391 101.129 24.2358 100.999 23.9558C100.877 23.6758 100.7 23.4518 100.467 23.2838C100.233 23.1065 99.93 23.0178 99.5566 23.0178V22.7378C99.8366 22.7378 100.075 22.6818 100.271 22.5698C100.467 22.4485 100.625 22.2945 100.747 22.1078C100.877 21.9118 100.98 21.7065 101.055 21.4918C101.129 21.2771 101.185 21.0765 101.223 20.8898H101.545ZM110.166 17.7678C110.716 17.7678 111.141 17.8285 111.44 17.9498C111.738 18.0618 111.995 18.1831 112.21 18.3138C112.322 18.3791 112.41 18.4305 112.476 18.4678C112.55 18.4958 112.62 18.5098 112.686 18.5098C112.779 18.5098 112.844 18.4585 112.882 18.3558C112.928 18.2531 112.966 18.0991 112.994 17.8938H113.316C113.306 18.0711 113.292 18.2858 113.274 18.5378C113.264 18.7805 113.255 19.1025 113.246 19.5038C113.246 19.9051 113.246 20.4325 113.246 21.0858H112.924C112.886 20.6005 112.774 20.1291 112.588 19.6718C112.401 19.2145 112.135 18.8411 111.79 18.5518C111.454 18.2531 111.038 18.1038 110.544 18.1038C110.096 18.1038 109.727 18.2298 109.438 18.4818C109.148 18.7338 109.004 19.0838 109.004 19.5318C109.004 19.9051 109.097 20.2271 109.284 20.4978C109.47 20.7591 109.741 21.0158 110.096 21.2678C110.46 21.5198 110.898 21.8231 111.412 22.1778C111.86 22.4671 112.261 22.7565 112.616 23.0458C112.97 23.3351 113.255 23.6618 113.47 24.0258C113.684 24.3898 113.792 24.8238 113.792 25.3278C113.792 25.9438 113.628 26.4525 113.302 26.8538C112.984 27.2551 112.564 27.5585 112.042 27.7638C111.519 27.9598 110.945 28.0578 110.32 28.0578C109.741 28.0578 109.279 28.0018 108.934 27.8898C108.588 27.7778 108.299 27.6611 108.066 27.5398C107.86 27.4091 107.702 27.3438 107.59 27.3438C107.496 27.3438 107.426 27.3951 107.38 27.4978C107.342 27.6005 107.31 27.7545 107.282 27.9598H106.96C106.978 27.7358 106.988 27.4745 106.988 27.1758C106.997 26.8771 107.002 26.4898 107.002 26.0138C107.011 25.5285 107.016 24.9171 107.016 24.1798H107.338C107.375 24.7958 107.478 25.3745 107.646 25.9158C107.823 26.4478 108.089 26.8771 108.444 27.2038C108.808 27.5305 109.288 27.6938 109.886 27.6938C110.212 27.6938 110.502 27.6378 110.754 27.5258C111.015 27.4045 111.225 27.2271 111.384 26.9938C111.542 26.7605 111.622 26.4711 111.622 26.1258C111.622 25.7338 111.528 25.3931 111.342 25.1038C111.164 24.8145 110.917 24.5438 110.6 24.2918C110.292 24.0398 109.932 23.7831 109.522 23.5218C109.083 23.2325 108.672 22.9431 108.29 22.6538C107.907 22.3645 107.599 22.0331 107.366 21.6598C107.142 21.2865 107.03 20.8431 107.03 20.3298C107.03 19.7418 107.174 19.2611 107.464 18.8878C107.762 18.5051 108.15 18.2251 108.626 18.0478C109.111 17.8611 109.624 17.7678 110.166 17.7678ZM125.313 17.9498C125.276 18.4258 125.248 18.8831 125.229 19.3218C125.22 19.7605 125.215 20.0965 125.215 20.3298C125.215 20.5351 125.22 20.7311 125.229 20.9178C125.239 21.1045 125.248 21.2631 125.257 21.3938H124.935C124.786 20.6098 124.595 19.9891 124.361 19.5318C124.137 19.0745 123.867 18.7525 123.549 18.5658C123.232 18.3698 122.859 18.2718 122.429 18.2718H122.107V26.2658C122.107 26.6391 122.145 26.9191 122.219 27.1058C122.303 27.2925 122.453 27.4185 122.667 27.4838C122.882 27.5398 123.195 27.5725 123.605 27.5818V27.8618C123.316 27.8525 122.929 27.8431 122.443 27.8338C121.967 27.8245 121.468 27.8198 120.945 27.8198C120.432 27.8198 119.947 27.8245 119.489 27.8338C119.032 27.8431 118.663 27.8525 118.383 27.8618V27.5818C118.803 27.5725 119.121 27.5398 119.335 27.4838C119.55 27.4185 119.695 27.2925 119.769 27.1058C119.844 26.9191 119.881 26.6391 119.881 26.2658V18.2718H119.573C119.144 18.2718 118.771 18.3698 118.453 18.5658C118.136 18.7525 117.865 19.0745 117.641 19.5318C117.417 19.9798 117.221 20.6005 117.053 21.3938H116.731C116.75 21.2631 116.759 21.1045 116.759 20.9178C116.769 20.7311 116.773 20.5351 116.773 20.3298C116.773 20.0965 116.764 19.7605 116.745 19.3218C116.736 18.8831 116.713 18.4258 116.675 17.9498C117.105 17.9591 117.571 17.9685 118.075 17.9778C118.589 17.9871 119.102 17.9918 119.615 17.9918C120.129 17.9918 120.591 17.9918 121.001 17.9918C121.421 17.9918 121.883 17.9918 122.387 17.9918C122.901 17.9918 123.414 17.9871 123.927 17.9778C124.441 17.9685 124.903 17.9591 125.313 17.9498Z" fill="white"/>
<path d="M28.0313 21.2116C27.2901 23.5724 25.6512 26.4909 22.4641 28.2185C20.5777 29.2411 18.5379 29.68 16.5443 29.5976L16.5984 6.27203C17.1944 6.27233 17.9087 6.30248 18.6393 6.3864C18.9898 6.42666 19.3333 6.47817 19.6619 6.54159C20.3866 6.71567 21.0942 6.96 21.774 7.2714C24.0068 8.29413 25.9366 10.039 27.1857 12.3939C28.2163 14.3369 28.6479 16.4395 28.5473 18.4886C28.5049 19.1806 28.3494 20.1447 28.0313 21.2116ZM14.6054 6.5362L14.5524 29.3393C11.3587 28.6369 8.47865 26.5781 6.81266 23.4372C3.79181 17.7421 5.91336 10.6594 11.5343 7.6126C12.1876 7.25844 13.2789 6.81989 14.6054 6.5362Z" stroke="url(#paint0_linear_0_486)" stroke-width="2"/>
<defs>
<linearGradient id="paint0_linear_0_486" x1="4.91415" y1="16.2362" x2="31.3563" y2="17.8784" gradientUnits="userSpaceOnUse">
<stop offset="0.288448" stop-color="white"/>
<stop offset="0.780176" stop-color="white" stop-opacity="0"/>
</linearGradient>
</defs>
</svg>
